# xmcd
#
# Track frame offsets:
#	150
#	19609
#	44714
#	67925
#	89390
#	114066
#	138123
#	162328
#	180910
#
# Disc length: 2650 seconds
#
# Revision: 3
# Processed by: cddbd v1.5.2PL0 Copyright (c) Steve Scherf et al.
# Submitted via: audiograbber 1.83.01
#
DISCID=650a5809
DTITLE=Wayne Shorter - Weather Report Recordings Of Wayne Shorter-Disc  2
DYEAR=2011
DGENRE=Jazz
TTITLE0=The Elders
TTITLE1=Sightseeing
TTITLE2=Port Of Entry
TTITLE3=When It Was Now
TTITLE4=Plaza Real
TTITLE5=Predator
TTITLE6=Swamp Cabbage
TTITLE7=Pearl On The Half Shell
TTITLE8=Face On The Barroom Floor
EXTD=
EXTT0=
EXTT1=
EXTT2=
EXTT3=
EXTT4=
EXTT5=
EXTT6=
EXTT7=
EXTT8=
PLAYORDER=
